# xmcd CD database file
# Generated: Son Mai 25 15:25:58 2003 by KSCD
# 
# Track frame offsets:
#       150
#       19743
#       25636
#       47656
#       57454
#       64153
#       83719
#       98172
#       131235
#       140969
#       155852
#       171754
#       183415
#       188720
#       216621
#       239413
#       268570
#       279010
#       287203
#       319128
#       332989
#
# Disc length: 4629 seconds
#
# Revision: 4
# Processed by: cddbd v1.4PL0 Copyright (c) Steve Scherf et al.
# Submitted via: Kscd 1.3.3
#
DISCID=46121315
DTITLE=Karl V.La Capella Reial de catalunya Hespèrion XXI - Musik aus der Zei
DTITLE=t
DYEAR=1900
DGENRE=
TTITLE0=Fortunata desperata: Nasci, pati, mori
TTITLE1=Dit le Burguygnon
TTITLE2=Quand je bois du vin clairet
TTITLE3=Amor con fortuna
TTITLE4=Vive le Roy
TTITLE5=Todos los bienes del mundo
TTITLE6=La Spagna à 5
TTITLE7=Harto de tanta porfia
TTITLE8=Pavana "La Battaglia"
TTITLE9=Belle qui tiens ma vie
TTITLE10=Diferencias sobre "Belle qui tiens ma vie"
TTITLE11=Vecchie letrose
TTITLE12=Fanfare
TTITLE13=Sanctus Missa "Mille Regretz"
TTITLE14=Da Pacem Domine (Ricercare XIV)
TTITLE15=Jubilate Deo omnis terra
TTITLE16=Mille Regretz
TTITLE17=Todods los buenos soldados
TTITLE18=Agnus Dei Missa "Mille Regretz"
TTITLE19=Mille Regretz
TTITLE20=Circumdederunt me gemitus mortis
EXTD=245\nr: Jordi Savall\n\n(P)+(C) ORF 2000\nORF Edition Alte Musik\nORF 
EXTD=CD Performers: La Capella Reial de Catalunya, Hesperion XXI\nDirecto
EXTT0=
EXTT1=
EXTT2=
EXTT3=
EXTT4=
EXTT5=
EXTT6=
EXTT7=
EXTT8=
EXTT9=
EXTT10=
EXTT11=
EXTT12=
EXTT13=
EXTT14=
EXTT15=
EXTT16=
EXTT17=
EXTT18=
EXTT19=
EXTT20=
PLAYORDER=
